<svg width="52" height="19" viewBox="0 0 52 19" fill="none" xmlns="http://www.w3.org/2000/svg">
<path fill-rule="evenodd" clip-rule="evenodd" d="M27 19L22.3901 10.582L21.25 8.5L20.1099 10.582L15.5 19H2H0V17V2V0H2H50H52V2V17V19H50H27ZM19.4958 7.53937L14.315 17H2V2H50V17H28.185L23.0042 7.53937L21.25 4.33606L19.4958 7.53937ZM5 4.13849V15.1385H9.43038C10.2068 15.1385 10.8599 15.006 11.3899 14.741C11.9198 14.4761 12.3198 14.1162 12.5899 13.6614C12.8633 13.2031 13 12.6821 13 12.0984C13 11.5578 12.892 11.0923 12.6759 10.702C12.4599 10.3081 12.1781 10.0019 11.8304 9.78351C11.4861 9.56508 11.1165 9.44692 10.7215 9.42902V9.32159C11.0827 9.23566 11.4034 9.09064 11.6835 8.88654C11.9671 8.67885 12.1899 8.41388 12.3519 8.09161C12.5139 7.76577 12.5949 7.388 12.5949 6.95831C12.5949 6.40688 12.4667 5.9199 12.2101 5.49738C11.9536 5.07127 11.5705 4.73826 11.0608 4.49835C10.5511 4.25844 9.91477 4.13849 9.1519 4.13849H5ZM8.97975 13.2371H7.1924V10.3152H9.03038C9.38143 10.3152 9.68354 10.3815 9.93671 10.514C10.1932 10.6465 10.3907 10.8291 10.5291 11.0618C10.6675 11.2946 10.7367 11.5631 10.7367 11.8675C10.7367 12.2829 10.5966 12.6159 10.3165 12.8665C10.0363 13.1136 9.59072 13.2371 8.97975 13.2371ZM8.81772 8.74152H7.1924V6.01837H8.85823C9.3443 6.01837 9.71899 6.14012 9.98228 6.38361C10.2489 6.6271 10.3823 6.94757 10.3823 7.34503C10.3823 7.63507 10.3131 7.88393 10.1747 8.09161C10.0397 8.2993 9.85401 8.46043 9.61772 8.57501C9.38481 8.68602 9.11814 8.74152 8.81772 8.74152ZM34.3037 6.38029C34.6033 6.61371 34.7728 6.94118 34.8123 7.36272H36.8617C36.8519 6.72519 36.6905 6.1643 36.3778 5.68006C36.065 5.19581 35.6272 4.81782 35.0642 4.54609C34.5045 4.27436 33.8494 4.13849 33.0988 4.13849C32.3613 4.13849 31.7029 4.27436 31.1235 4.54609C30.544 4.81782 30.0881 5.19581 29.7556 5.68006C29.4263 6.1643 29.2634 6.73041 29.2667 7.37839C29.2634 8.16921 29.5086 8.79803 30.0025 9.26485C30.4963 9.73168 31.1695 10.0748 32.0222 10.2943L33.1235 10.5869C33.4922 10.681 33.8033 10.7855 34.0568 10.9005C34.3136 11.0154 34.5078 11.1548 34.6395 11.3185C34.7745 11.4823 34.842 11.6843 34.842 11.9247C34.842 12.1825 34.7679 12.4107 34.6198 12.6093C34.4716 12.8078 34.2626 12.9629 33.9926 13.0744C33.7259 13.1858 33.4115 13.2416 33.0494 13.2416C32.6807 13.2416 32.3498 13.1824 32.0568 13.0639C31.7671 12.942 31.535 12.7626 31.3605 12.5257C31.1893 12.2853 31.0922 11.9857 31.0691 11.6268H29C29.0165 12.3968 29.1926 13.043 29.5284 13.5656C29.8675 14.0846 30.3383 14.4766 30.9407 14.7413C31.5465 15.0061 32.2576 15.1385 33.0741 15.1385C33.8971 15.1385 34.6 15.0078 35.1827 14.7466C35.7687 14.4818 36.2165 14.1108 36.5259 13.6335C36.8387 13.1527 36.9967 12.5849 37 11.9299C36.9967 11.484 36.9193 11.0886 36.7679 10.7437C36.6198 10.3988 36.4107 10.0992 36.1407 9.8449C35.8708 9.59059 35.5514 9.37633 35.1827 9.20215C34.814 9.02796 34.4091 8.88861 33.9679 8.78409L33.0593 8.55417C32.8387 8.50191 32.6313 8.4392 32.437 8.36604C32.2428 8.2894 32.0716 8.20056 31.9235 8.09953C31.7753 7.99502 31.6584 7.87135 31.5728 7.72851C31.4905 7.58568 31.4527 7.41846 31.4593 7.22685C31.4593 6.99692 31.5218 6.79138 31.6469 6.61022C31.7753 6.42907 31.9597 6.28797 32.2 6.18694C32.4403 6.08243 32.735 6.03017 33.084 6.03017C33.5975 6.03017 34.0041 6.14688 34.3037 6.38029ZM40 15.1385V4.13849H46.9798V6.05597H42.19V8.67706H46.6207V10.5945H42.19V13.221H47V15.1385H40Z" fill="#D63326"/>
</svg>
