<svg width="313" height="72" viewBox="0 0 313 72" fill="none" xmlns="http://www.w3.org/2000/svg">
<path d="M0 20L25 0V47H0V20Z" fill="#CB3834"/>
<path d="M25 47L75 0V47H25Z" fill="#CB3834"/>
<path d="M50 72L75 47V72H50Z" fill="#CB3834"/>
<path d="M0 72L25 47V72H0Z" fill="#CB3834"/>
<path d="M102.456 42.06C99.2827 42.06 96.5573 41.5187 94.28 40.436C92.04 39.3533 90.0053 37.7293 88.176 35.564L93.216 30.524C94.3733 32.0547 95.7173 33.2493 97.248 34.108C98.7787 34.9293 100.645 35.34 102.848 35.34C104.827 35.34 106.395 34.948 107.552 34.164C108.747 33.38 109.344 32.2973 109.344 30.916C109.344 29.7213 109.008 28.7507 108.336 28.004C107.664 27.2573 106.768 26.6227 105.648 26.1C104.565 25.5773 103.352 25.1107 102.008 24.7C100.701 24.252 99.376 23.748 98.032 23.188C96.7253 22.628 95.512 21.9373 94.392 21.116C93.3093 20.2573 92.432 19.1747 91.76 17.868C91.088 16.524 90.752 14.844 90.752 12.828C90.752 10.4387 91.3307 8.404 92.488 6.724C93.6453 5.044 95.232 3.756 97.248 2.86C99.264 1.964 101.541 1.516 104.08 1.516C106.768 1.516 109.195 2.02 111.36 3.028C113.525 4.036 115.299 5.34266 116.68 6.948L111.64 11.988C110.483 10.7187 109.288 9.78533 108.056 9.188C106.861 8.59066 105.499 8.292 103.968 8.292C102.213 8.292 100.832 8.628 99.824 9.3C98.816 9.972 98.312 10.9427 98.312 12.212C98.312 13.2947 98.648 14.172 99.32 14.844C99.992 15.516 100.869 16.0947 101.952 16.58C103.072 17.0653 104.285 17.532 105.592 17.98C106.936 18.428 108.261 18.932 109.568 19.492C110.912 20.052 112.125 20.78 113.208 21.676C114.328 22.572 115.224 23.7293 115.896 25.148C116.568 26.5293 116.904 28.2467 116.904 30.3C116.904 33.9587 115.616 36.8333 113.04 38.924C110.464 41.0147 106.936 42.06 102.456 42.06ZM146.715 41.5L129.635 20.948L146.267 2.132H155.787L137.251 22.572V19.044L156.403 41.5H146.715ZM122.915 41.5V2.132H130.531V41.5H122.915ZM170.615 26.324L155.383 2.132H164.175L175.991 21.508H170.951L182.767 2.132H191.447L176.047 26.324H170.615ZM169.607 41.5V22.236H177.279V41.5H169.607ZM195.048 41.5V2.132H202.664V41.5H195.048ZM200.648 41.5V34.724H220.696V41.5H200.648ZM226.165 41.5V2.132H233.781V41.5H226.165ZM241.86 41.5V2.132H247.18L249.476 9.748V41.5H241.86ZM269.076 41.5L245.724 11.26L247.18 2.132L270.532 32.372L269.076 41.5ZM269.076 41.5L266.892 34.108V2.132H274.564V41.5H269.076ZM282.548 41.5V2.132H290.164V41.5H282.548ZM288.148 41.5V34.78H309.932V41.5H288.148ZM288.148 24.644V18.148H307.972V24.644H288.148ZM288.148 8.852V2.132H309.652V8.852H288.148Z" fill="black"/>
<path d="M90.168 69.5V44.732H92.796V69.5H90.168ZM106.404 69.5V44.732H109.032V69.5H106.404ZM91.896 57.908V55.496H107.124V57.908H91.896ZM127.975 69.5V44.732H130.603V69.5H127.975ZM129.703 69.5V67.088H144.283V69.5H129.703ZM129.703 57.98V55.64H143.131V57.98H129.703ZM129.703 47.144V44.732H144.067V47.144H129.703ZM161.774 69.5V44.732H164.402V69.5H161.774ZM194.535 69.824C192.783 69.824 191.151 69.5 189.639 68.852C188.127 68.204 186.807 67.304 185.679 66.152C184.551 65 183.675 63.656 183.051 62.12C182.427 60.56 182.115 58.88 182.115 57.08C182.115 55.28 182.427 53.612 183.051 52.076C183.699 50.54 184.587 49.196 185.715 48.044C186.843 46.868 188.175 45.956 189.711 45.308C191.247 44.66 192.915 44.336 194.715 44.336C196.707 44.336 198.531 44.732 200.187 45.524C201.867 46.316 203.247 47.432 204.327 48.872L202.491 50.708C201.627 49.484 200.523 48.548 199.179 47.9C197.835 47.228 196.347 46.892 194.715 46.892C192.771 46.892 191.055 47.336 189.567 48.224C188.079 49.088 186.915 50.288 186.075 51.824C185.259 53.36 184.851 55.124 184.851 57.116C184.851 59.084 185.259 60.836 186.075 62.372C186.915 63.908 188.055 65.12 189.495 66.008C190.959 66.872 192.615 67.304 194.463 67.304C196.311 67.304 197.907 66.932 199.251 66.188C200.619 65.444 201.663 64.364 202.383 62.948C203.127 61.532 203.511 59.828 203.535 57.836L205.047 58.952H194.211V56.54H206.271V56.936C206.271 59.72 205.767 62.072 204.759 63.992C203.775 65.912 202.407 67.364 200.655 68.348C198.903 69.332 196.863 69.824 194.535 69.824ZM223.783 69.5V44.732H226.411V69.5H223.783ZM240.019 69.5V44.732H242.647V69.5H240.019ZM225.511 57.908V55.496H240.739V57.908H225.511ZM268.466 69.5V45.416H271.13V69.5H268.466ZM259.754 47.144V44.732H279.842V47.144H259.754ZM302.088 69.86C300.168 69.86 298.512 69.5 297.12 68.78C295.728 68.036 294.504 67.004 293.448 65.684L295.284 63.884C296.124 65.06 297.096 65.936 298.2 66.512C299.328 67.088 300.66 67.376 302.196 67.376C303.78 67.376 305.064 67.016 306.048 66.296C307.032 65.576 307.524 64.58 307.524 63.308C307.524 62.324 307.296 61.52 306.84 60.896C306.384 60.248 305.784 59.732 305.04 59.348C304.32 58.94 303.516 58.58 302.628 58.268C301.74 57.956 300.852 57.632 299.964 57.296C299.1 56.936 298.296 56.492 297.552 55.964C296.808 55.436 296.208 54.764 295.752 53.948C295.32 53.132 295.104 52.088 295.104 50.816C295.104 49.472 295.428 48.32 296.076 47.36C296.724 46.4 297.612 45.668 298.74 45.164C299.868 44.636 301.152 44.372 302.592 44.372C304.2 44.372 305.628 44.684 306.876 45.308C308.148 45.932 309.204 46.772 310.044 47.828L308.244 49.628C307.476 48.716 306.636 48.02 305.724 47.54C304.812 47.06 303.744 46.82 302.52 46.82C301.08 46.82 299.928 47.156 299.064 47.828C298.2 48.5 297.768 49.436 297.768 50.636C297.768 51.572 297.984 52.328 298.416 52.904C298.872 53.48 299.472 53.96 300.216 54.344C300.96 54.728 301.764 55.076 302.628 55.388C303.516 55.676 304.404 56 305.292 56.36C306.18 56.72 306.984 57.176 307.704 57.728C308.448 58.28 309.048 58.988 309.504 59.852C309.96 60.692 310.188 61.772 310.188 63.092C310.188 65.228 309.456 66.896 307.992 68.096C306.552 69.272 304.584 69.86 302.088 69.86Z" fill="black"/>
</svg>
